<svg xmlns="http://www.w3.org/2000/svg" xmlns:svg="http://www.w3.org/2000/svg" id="svg134" width="419.772" height="434.76" version="1.1" viewBox="0 0 419.772 434.76"><defs id="defs124"><style id="style122">.cls-1{fill:none}.cls-2{fill:#1976d2}</style></defs><rect id="rect126" width="565" height="570.43" x="-73.398" y="-67.82" class="cls-1"/><path id="path128" d="m 384.31177,242.99 -59.55,103.19 a 13.52,13.52 0 0 1 -11.67,6.73 h -19.95 l 63.46,-109.92 h -35.47 l -63.45,109.88 h -85.46 a 13.49,13.49 0 0 1 -11.62,-6.69 l -70.490004,-122 a 13.54,13.54 0 0 1 0,-13.48 l 70.450004,-122 a 13.51,13.51 0 0 1 11.67,-6.73 h 67.67 l -13.3,-23.16 a 54.43,54.43 0 0 0 -5.55,-7.6 h -48.83 a 44.3,44.3 0 0 0 -38.26,22.09 l -70.440004,122 a 44.29,44.29 0 0 0 0,44.18 l 70.430004,122 a 44.31,44.31 0 0 0 38.27,22.1 h 140.87 a 44.3,44.3 0 0 0 38.26,-22.09 l 68.42,-118.5 z" class="cls-2"/><path id="path130" d="m 218.88177,398.93 a 55.89,55.89 0 0 1 -23.16,5.12 h -33.54 a 56.31,56.31 0 0 1 -48.58,-28.07 L 38.211766,245.47 a 56.3,56.3 0 0 1 0,-56.14 L 113.60177,58.81 a 56.29,56.29 0 0 1 48.62,-28.07 h 33.54 a 56.28,56.28 0 0 1 48.62,28.07 l 76.79,133 h 35.43 l -63.46,-109.89 h 19.95 a 13.52,13.52 0 0 1 11.67,6.73 l 59.55,103.16 h 35.46 l -68.41,-118.5 a 44.31,44.31 0 0 0 -38.27,-22.13 h -37.68 l -4.47,-7.76 A 87.11,87.11 0 0 0 195.72177,0 h -33.54 A 87.1,87.1 0 0 0 86.971766,43.42 l -75.37,130.55 a 87.07,87.07 0 0 0 0,86.85 l 75.35,130.52 a 87.1,87.1 0 0 0 75.210004,43.42 h 33.54 a 87,87 0 0 0 70.12,-35.83 z" class="cls-2"/></svg>